<?xml version="1.0" encoding="iso-8859-1"?>
<!-- Generator: Adobe Illustrator 16.0.0, SVG Export Plug-In . SVG Version: 6.00 Build 0)  -->
<!DOCTYPE svg PUBLIC "-//W3C//DTD SVG 1.1//EN" "http://www.w3.org/Graphics/SVG/1.1/DTD/svg11.dtd">
<svg version="1.1" id="Capa_1" xmlns="http://www.w3.org/2000/svg" xmlns:xlink="http://www.w3.org/1999/xlink" x="0px" y="0px"
	 width="35.002px" height="35.002px" viewBox="0 0 35.002 35.002" style="enable-background:new 0 0 35.002 35.002;"
	 xml:space="preserve">
<g>
	<path d="M7.737,17.606H3.259V4.915h21.655v5.438h1.148V5.451c0-0.97-0.791-1.763-1.76-1.763H1.76C0.791,3.688,0,4.481,0,5.451
		v11.618c0,0.97,0.791,1.763,1.76,1.763h5.976L7.737,17.606L7.737,17.606z M1.271,8.673V7.187c0-0.271,0.223-0.494,0.496-0.494
		s0.496,0.224,0.496,0.494v1.486c0,0.272-0.223,0.495-0.496,0.495S1.271,8.946,1.271,8.673z M0.882,11.262
		c0-0.486,0.395-0.881,0.88-0.881c0.486,0,0.88,0.395,0.88,0.881c0,0.483-0.394,0.879-0.88,0.879
		C1.276,12.14,0.882,11.745,0.882,11.262z M1.271,15.333v-1.485c0-0.272,0.223-0.496,0.496-0.496s0.496,0.224,0.496,0.496v1.485
		c0,0.273-0.223,0.494-0.496,0.494S1.271,15.606,1.271,15.333z M33.242,11.722H10.699c-0.969,0-1.761,0.793-1.761,1.76v11.619
		c0,0.97,0.792,1.763,1.761,1.763h4.595v4.45l4.45-4.45h13.498c0.969,0,1.76-0.793,1.76-1.763v-11.62
		C35.002,12.515,34.211,11.722,33.242,11.722z M10.699,20.172c-0.487,0-0.881-0.395-0.881-0.88s0.394-0.882,0.881-0.882
		c0.486,0,0.88,0.396,0.88,0.882S11.186,20.172,10.699,20.172z M32.211,25.638H19.656l-3.444,3.442v-3.442h-4.016V12.946h20.015
		V25.638z M33.732,21.149c0,0.119-0.096,0.215-0.215,0.215c-0.117,0-0.211-0.096-0.211-0.215v-3.717
		c0-0.117,0.094-0.214,0.211-0.214c0.119,0,0.215,0.097,0.215,0.214V21.149z M19.57,19.288c0,0.48-0.391,0.871-0.872,0.871
		c-0.482,0-0.874-0.391-0.874-0.871c0-0.481,0.392-0.875,0.874-0.875C19.18,18.413,19.57,18.804,19.57,19.288z M23.189,19.288
		c0,0.48-0.392,0.871-0.873,0.871s-0.873-0.391-0.873-0.871c0-0.481,0.392-0.875,0.873-0.875
		C22.799,18.413,23.189,18.804,23.189,19.288z M26.811,19.288c0,0.48-0.392,0.871-0.873,0.871c-0.482,0-0.875-0.391-0.875-0.871
		c0-0.481,0.393-0.875,0.875-0.875C26.419,18.413,26.811,18.804,26.811,19.288z"/>
</g>
<g>
</g>
<g>
</g>
<g>
</g>
<g>
</g>
<g>
</g>
<g>
</g>
<g>
</g>
<g>
</g>
<g>
</g>
<g>
</g>
<g>
</g>
<g>
</g>
<g>
</g>
<g>
</g>
<g>
</g>
</svg>
